<svg width="40" height="28" viewBox="0 0 40 28" fill="none" xmlns="http://www.w3.org/2000/svg">
<g clip-path="url(#clip0_8755_27373)">
<path fill-rule="evenodd" clip-rule="evenodd" d="M0.749909 18.9862L26.4822 20.7219C26.6493 20.7715 26.8014 20.8617 26.9247 20.9844C27.048 21.1072 27.1386 21.2585 27.1884 21.4249L28.9323 27.2532C28.9969 27.4688 29.1296 27.658 29.3109 27.7924C29.4921 27.9269 29.7121 27.9996 29.9381 27.9996C30.1642 27.9996 30.3842 27.9269 30.5654 27.7924C30.7467 27.658 30.8794 27.4688 30.944 27.2532L32.6879 21.4249C32.7377 21.2585 32.8283 21.1072 32.9516 20.9844C33.0749 20.8617 33.227 20.7715 33.3941 20.7219L39.2501 18.9862C39.4667 18.922 39.6567 18.7899 39.7919 18.6095C39.927 18.4291 40 18.2102 40 17.9852C40 17.7602 39.927 17.5412 39.7919 17.3608C39.6567 17.1804 39.4667 17.0483 39.2501 16.9841L33.3942 15.2484C33.227 15.1988 33.0749 15.1086 32.9516 14.9859C32.8283 14.8632 32.7377 14.7118 32.6879 14.5454L30.944 8.71713C30.8794 8.50149 30.7467 8.31235 30.5655 8.17785C30.3842 8.04336 30.1642 7.9707 29.9382 7.9707C29.7121 7.9707 29.4921 8.04336 29.3109 8.17785C29.1296 8.31235 28.9969 8.50149 28.9324 8.71713L27.1884 14.5454C27.1386 14.7118 27.048 14.8632 26.9247 14.9859C26.8014 15.1086 26.6493 15.1988 26.4822 15.2484L0.749913 16.9841C0.533261 17.0483 0.343234 17.1804 0.208113 17.3608C0.0729919 17.5412 0 17.7602 0 17.9852C0 18.2102 0.0729919 18.4291 0.208113 18.6095C0.343234 18.7899 0.533257 18.922 0.749909 18.9862Z" fill="#CBD5E1"/>
<path fill-rule="evenodd" clip-rule="evenodd" d="M13.5798 6.50789L17.0394 7.53336C17.1382 7.56263 17.228 7.61593 17.3009 7.68844C17.3737 7.76095 17.4273 7.85039 17.4567 7.94867L18.487 11.392C18.5251 11.5194 18.6035 11.6311 18.7106 11.7106C18.8177 11.79 18.9477 11.833 19.0812 11.833C19.2148 11.833 19.3447 11.79 19.4518 11.7106C19.5589 11.6311 19.6373 11.5194 19.6754 11.392L20.7057 7.94867C20.7351 7.85038 20.7887 7.76093 20.8615 7.68842C20.9344 7.61591 21.0243 7.56262 21.123 7.53336L24.5826 6.50789C24.7106 6.46995 24.8229 6.39188 24.9027 6.28532C24.9825 6.17876 25.0257 6.04939 25.0257 5.91648C25.0257 5.78356 24.9825 5.65419 24.9027 5.54763C24.8229 5.44107 24.7106 5.363 24.5826 5.32506L21.123 4.29959C21.0242 4.27033 20.9344 4.21703 20.8615 4.14452C20.7887 4.07201 20.7351 3.98257 20.7057 3.88429L19.6754 0.440954C19.6373 0.313561 19.5589 0.201824 19.4518 0.122372C19.3447 0.0429197 19.2148 0 19.0812 0C18.9477 0 18.8177 0.0429197 18.7106 0.122372C18.6035 0.201824 18.5251 0.313561 18.487 0.440954L17.4567 3.88429C17.4273 3.98257 17.3737 4.07201 17.3009 4.14452C17.228 4.21703 17.1382 4.27033 17.0394 4.29959L13.5798 5.32506C13.4518 5.36299 13.3395 5.44104 13.2597 5.54761C13.1798 5.65417 13.1367 5.78355 13.1367 5.91648C13.1367 6.0494 13.1798 6.17878 13.2597 6.28534C13.3395 6.39191 13.4518 6.46996 13.5798 6.50789Z" fill="#CBD5E1"/>
</g>
<defs>
<clipPath id="clip0_8755_27373">
<rect width="40" height="28" fill="white"/>
</clipPath>
</defs>
</svg>
